<svg xmlns="http://www.w3.org/2000/svg" viewBox="0 0 53 58.92"><defs><style>.cls-1{fill:#5167f2;}.cls-2{fill:#7d07f3;}.cls-3{fill:#ac05f1;}.cls-4{fill:#24d9b8;}.cls-5{fill:#5107f2;}.cls-6{fill:none;}.cls-7{fill:#d8f205;}</style></defs><g id="Layer_2" data-name="Layer 2"><g id="Middle"><path class="cls-1" d="M28.44,58.85A26.53,26.53,0,0,0,53,32.39a29,29,0,0,0-6.55-18.71,20.89,20.89,0,0,0-16-7.82,20.81,20.81,0,0,0-15.51,7.26,28.58,28.58,0,0,0-7,17.54.9.9,0,0,1-.88.85H2.65A2.65,2.65,0,0,0,0,34.16H0a1.21,1.21,0,0,0,0,.19A26.53,26.53,0,0,0,28.44,58.85Zm3.32-41.52a4.43,4.43,0,1,1,4.42,4.42A4.42,4.42,0,0,1,31.76,17.33Zm7.08,12.38a4.42,4.42,0,1,1,4.42,4.42A4.42,4.42,0,0,1,38.84,29.71Zm.88,8.85A4.42,4.42,0,1,1,35.3,43,4.42,4.42,0,0,1,39.72,38.56ZM22.92,49.17a4.42,4.42,0,1,1,4.42,4.42A4.42,4.42,0,0,1,22.92,49.17Z"/><path class="cls-2" d="M27.34,53.59a4.42,4.42,0,1,1,4.42-4.42A4.42,4.42,0,0,1,27.34,53.59Z"/><path class="cls-3" d="M39.72,47.4A4.42,4.42,0,1,1,44.14,43,4.42,4.42,0,0,1,39.72,47.4Z"/><path class="cls-4" d="M43.26,34.13a4.42,4.42,0,1,1,4.42-4.42A4.42,4.42,0,0,1,43.26,34.13Z"/><path class="cls-5" d="M36.18,21.75a4.42,4.42,0,1,1,4.43-4.42A4.42,4.42,0,0,1,36.18,21.75Z"/><path class="cls-5" d="M28.77,19.88a14.85,14.85,0,0,0-6.44-5.2V5.85h1.78V0H8.87V5.85h1.77v8.82a15,15,0,1,0,18.13,5.21ZM10.64,1.77H22.33v2.3H17.38V5.85h3.18v8.5H12.41V4.07H10.64Zm5.85,40A13.25,13.25,0,0,1,4.82,22.23H15.6V20.46H5.9a13.39,13.39,0,0,1,5.75-4.34h9.68a13.21,13.21,0,0,1,5.76,4.34H17.38v1.77H28.16A13.25,13.25,0,0,1,16.49,41.81Z"/><path class="cls-6" d="M22.33,4.07V1.77H10.64v2.3h1.77V14.35h8.15V5.85H17.38V4.07ZM15.6,5.85H13.83V4.07H15.6Z"/><path class="cls-6" d="M27.09,20.46H17.38v.83H15.6v-.83H5.9a13.39,13.39,0,0,1,5.75-4.34h9.68A13.21,13.21,0,0,1,27.09,20.46Z"/><path class="cls-7" d="M28.16,22.23H17.38v-.94H15.6v.94H4.82a13.28,13.28,0,1,0,23.34,0Zm-17,3.1H13V27.1H11.17Zm0,5.23h7v1.77h-7ZM13,37.64H11.17V35.87H13Zm8.76,0h-7V35.87h7Zm0-5.31H19.94V30.56h1.77Zm0-5.23h-7V25.33h7Z"/><rect class="cls-5" x="13.83" y="4.07" width="1.77" height="1.77"/><rect class="cls-5" x="11.17" y="25.33" width="1.77" height="1.77"/><rect class="cls-5" x="14.72" y="25.33" width="6.99" height="1.77"/><rect class="cls-5" x="19.94" y="30.56" width="1.77" height="1.77"/><rect class="cls-5" x="11.17" y="30.56" width="7" height="1.77"/><rect class="cls-5" x="11.17" y="35.87" width="1.77" height="1.77"/><rect class="cls-5" x="14.72" y="35.87" width="6.99" height="1.77"/></g></g></svg>