<svg xmlns="http://www.w3.org/2000/svg" viewBox="0 0 74.53 70.67"><defs><style>.cls-1{fill:#5107f2;}.cls-2{fill:#24d9b8;}.cls-3{fill:#ac05f1;}.cls-4{fill:#5167f2;}</style></defs><g id="Layer_2" data-name="Layer 2"><g id="Middle"><path class="cls-1" d="M73.18,68.1H69.39V38.55h3.85a1.29,1.29,0,0,0,1.2-1.76L66.73,17.52a1.3,1.3,0,0,0-1.2-.82H42.22l-3.67-3.31h0v-3.1H50.11A1.29,1.29,0,0,0,51.4,9V1.29A1.29,1.29,0,0,0,50.11,0H37.27A1.29,1.29,0,0,0,36,1.29v12.1h0L32.3,16.7H9a1.3,1.3,0,0,0-1.2.82L.09,36.79A1.26,1.26,0,0,0,.22,38a1.28,1.28,0,0,0,1.07.57H5.14V68.1H1.35A1.33,1.33,0,0,0,0,69.35a1.29,1.29,0,0,0,1.29,1.32H73.24a1.29,1.29,0,0,0,1.29-1.32A1.33,1.33,0,0,0,73.18,68.1ZM38.55,2.58H48.82s0,0,0,0V7.7H38.55ZM23.13,68.1H7.71V38.55H23.13ZM23.4,25l-.12.18v.19a2.17,2.17,0,0,0-.15.35h0V36H3.19L9.87,19.28H29.54l-6,5.47A1.24,1.24,0,0,0,23.4,25Zm19,43.12H32.12v-18H42.41Zm6.42,0H45V48.83a1.29,1.29,0,0,0-1.29-1.29H30.85a1.3,1.3,0,0,0-1.3,1.29V68.1H25.7V26.27h0l8.1-7.4a5.12,5.12,0,0,1,6.93,0l8.1,7.4h0Zm2.29-43.3L45,19.28H64.66L71.34,36H51.4V25.7a1.31,1.31,0,0,0,0-.28.74.74,0,0,0,0-.21L51.3,25Zm15.7,43.3H51.4V38.55H66.82Z"/><path class="cls-1" d="M48.83,2.58V7.7H38.55V2.58H48.82S48.83,2.57,48.83,2.58Z"/><path class="cls-2" d="M42.41,50.12v18H32.12v-18H42.41Z"/><path class="cls-3" d="M48.83,26.27V68.1H45V48.83a1.29,1.29,0,0,0-1.29-1.29H30.85a1.3,1.3,0,0,0-1.3,1.29V68.1H25.7V26.27h0l8.1-7.4a5.12,5.12,0,0,1,6.93,0l8.1,7.4Z"/><path class="cls-1" d="M66.82,38.55V68.1H51.4V38.55H66.82Z"/><path class="cls-1" d="M23.13,38.55V68.1H7.71V38.55H23.13Z"/><path class="cls-4" d="M71.34,36H51.4V25.7a1.31,1.31,0,0,0,0-.28.74.74,0,0,0,0-.21L51.3,25l-.18-.24L45,19.28H64.66Z"/><path class="cls-4" d="M29.54,19.28l-6,5.47a1.24,1.24,0,0,0-.17.23l-.12.18v.19a2.17,2.17,0,0,0-.15.35h0V36H3.19L9.87,19.28H29.54Z"/><path class="cls-2" d="M18,48.83H12.86a1.29,1.29,0,0,0-1.29,1.29v5.13a1.29,1.29,0,0,0,1.29,1.29H18a1.3,1.3,0,0,0,1.3-1.29V50.12A1.3,1.3,0,0,0,18,48.83ZM16.71,54H14.14V51.4h2.57Z"/><path class="cls-2" d="M16.71,51.4V54H14.14V51.4h2.57Z"/><path class="cls-2" d="M61.67,48.83H56.54a1.29,1.29,0,0,0-1.29,1.29v5.13a1.29,1.29,0,0,0,1.29,1.29h5.13A1.29,1.29,0,0,0,63,55.25V50.12A1.29,1.29,0,0,0,61.67,48.83ZM60.39,54H57.82V51.4h2.57Z"/><path class="cls-2" d="M60.39,51.4V54H57.82V51.4h2.57Z"/><path class="cls-2" d="M37.27,28.83A5.14,5.14,0,1,0,42.41,34,5.14,5.14,0,0,0,37.27,28.83Zm0,7.71A2.57,2.57,0,1,1,39.84,34,2.57,2.57,0,0,1,37.27,36.54Z"/><path class="cls-2" d="M39.84,34a2.57,2.57,0,1,1-2.57-2.57A2.58,2.58,0,0,1,39.84,34Z"/></g></g></svg>