<svg xmlns="http://www.w3.org/2000/svg" viewBox="0 0 205.58 59.43"><defs><style>.cls-1{font-size:26.87px;fill:#e5e5e5;font-family:AllRoundGothic-Bold, All Round Gothic;font-weight:700;}.cls-2{fill:#7d07f3;}.cls-3{opacity:0.2;}.cls-4{fill:#231f20;}.cls-5{fill:#c6b198;}.cls-6{fill:#ac05f1;}.cls-7{fill:#24d9b8;}.cls-8{fill:#fff;}.cls-9{fill:#5107f2;}.cls-10{fill:#d8f205;}</style></defs><g id="Layer_2" data-name="Layer 2"><g id="Content"><text class="cls-1" transform="translate(71.82 37.16)">Ky Pecord</text><g id="Layer_1-2" data-name="Layer 1"><circle class="cls-2" cx="29.72" cy="29.72" r="29.72"/><g class="cls-3"><path class="cls-4" d="M48.44,44.86a1.85,1.85,0,0,1-1.85,1.86H13.16a1.86,1.86,0,0,1-1.86-1.86h0A1.85,1.85,0,0,1,13.16,43H46.59a1.85,1.85,0,0,1,1.85,1.85Z"/></g><path class="cls-5" d="M48.44,43a1.85,1.85,0,0,1-1.85,1.85H13.16A1.85,1.85,0,0,1,11.3,43h0a1.86,1.86,0,0,1,1.86-1.86H46.59A1.85,1.85,0,0,1,48.44,43Z"/><path class="cls-6" d="M21.76,18.86H18a2.78,2.78,0,0,0-2.78,2.79v19.5h9.28V21.65A2.78,2.78,0,0,0,21.76,18.86Z"/><path class="cls-7" d="M42.19,15.15H38.47a2.78,2.78,0,0,0-2.78,2.78V41.15H45V17.93A2.78,2.78,0,0,0,42.19,15.15Z"/><rect class="cls-5" x="15.26" y="22.58" width="9.29" height="2.79"/><rect class="cls-5" x="15.26" y="34.65" width="9.29" height="2.79"/><rect class="cls-8" x="35.69" y="34.65" width="9.29" height="2.79"/><rect class="cls-8" x="35.69" y="18.86" width="9.29" height="2.79"/><g class="cls-3"><path class="cls-4" d="M37.54,37.43V15.32a2.76,2.76,0,0,0-1.85,2.61V41.15h1.85V37.43Z"/></g><g class="cls-3"><path class="cls-4" d="M24.54,37.43V21.65A2.78,2.78,0,0,0,22.69,19V41.15h1.85V37.43Z"/></g><path class="cls-9" d="M32.9,11.43H27.33a2.79,2.79,0,0,0-2.79,2.79V41.15H35.69V14.22A2.79,2.79,0,0,0,32.9,11.43Z"/><rect class="cls-10" x="24.54" y="15.15" width="11.14" height="2.79"/><rect class="cls-10" x="24.54" y="34.65" width="11.14" height="2.79"/></g></g></g></svg>