<svg xmlns="http://www.w3.org/2000/svg" viewBox="0 0 77.03 69"><defs><style>.cls-1{fill:#5107f2;}.cls-2{fill:#5167f2;}.cls-3{fill:#e5e5e5;}.cls-4{fill:#d8f205;}</style></defs><g id="Layer_2" data-name="Layer 2"><g id="Middle"><path class="cls-1" d="M39.54,54.46h0c-13.74,0-24.88-6.17-24.88-16.05v-16H64.41v16C64.41,46.71,53.27,54.46,39.54,54.46Z"/><path class="cls-2" d="M74.09,16,43.81,1.22a12.08,12.08,0,0,0-10.59,0L2.94,16a5.23,5.23,0,0,0,.24,9.51l4,1.74L33.77,38.64a12.12,12.12,0,0,0,9.49,0L69.81,27.28l4-1.73A5.23,5.23,0,0,0,74.09,16Z"/><path class="cls-3" d="M64.41,61a1.61,1.61,0,0,1-1.61-1.61V31.07L40.21,19.48a1.61,1.61,0,0,1,1.46-2.86L66,29.11V59.37A1.61,1.61,0,0,1,64.41,61Z"/><ellipse class="cls-1" cx="39.32" cy="17.65" rx="7.22" ry="4.81"/><circle class="cls-4" cx="64.19" cy="62.58" r="6.42"/></g></g></svg>